<svg xmlns="http://www.w3.org/2000/svg" width="32" height="32" viewBox="0 0 24 24" fill="none" stroke="#2563eb" stroke-width="2" stroke-linecap="round" stroke-linejoin="round">
    <path d="M9.5 2A2.5 2.5 0 0 1 12 4.5v15a2.5 2.5 0 0 1-2.5 2.5H9a2.5 2.5 0 0 1-2.5-2.5V4.5A2.5 2.5 0 0 1 9 2h.5z"/>
    <path d="M15 2a2.5 2.5 0 0 1 2.5 2.5v15a2.5 2.5 0 0 1-2.5 2.5h-.5a2.5 2.5 0 0 1-2.5-2.5V4.5A2.5 2.5 0 0 1 14.5 2h.5z"/>
    <path d="M12 2v20"/>
    <path d="M7 8h10"/>
    <path d="M7 12h10"/>
    <path d="M7 16h10"/>
</svg> 